<svg width="285" height="66" viewBox="0 0 285 66" fill="none" xmlns="http://www.w3.org/2000/svg">
<path d="M3.62264 66C2.59623 66 1.73645 65.648 1.04332 64.944C0.347774 64.2424 0 63.3722 0 62.3333C0 61.2944 0.347774 60.4242 1.04332 59.7227C1.73645 59.0187 2.59623 58.6667 3.62264 58.6667H76.0755C77.1019 58.6667 77.9617 59.0187 78.6548 59.7227C79.3503 60.4242 79.6981 61.2944 79.6981 62.3333C79.6981 63.3722 79.3503 64.2424 78.6548 64.944C77.9617 65.648 77.1019 66 76.0755 66H3.62264ZM10.8679 55C8.87547 55 7.17042 54.2826 5.75276 52.8477C4.33268 51.4103 3.62264 49.6833 3.62264 47.6667V7.33333C3.62264 5.31667 4.33268 3.58967 5.75276 2.15233C7.17042 0.717444 8.87547 0 10.8679 0H68.8302C70.8226 0 72.5289 0.717444 73.949 2.15233C75.3666 3.58967 76.0755 5.31667 76.0755 7.33333V47.6667C76.0755 49.6833 75.3666 51.4103 73.949 52.8477C72.5289 54.2826 70.8226 55 68.8302 55H10.8679ZM10.8679 47.6667H68.8302V7.33333H10.8679V47.6667ZM10.8679 47.6667V7.33333V47.6667Z" fill="black"/>
<path d="M100.041 17.6H104.841V26.496H114.441V17.6H119.241V40H114.441V30.464H104.841V40H100.041V17.6ZM124.354 17.6H140.034V21.568H129.186V26.56H139.074V30.4H129.186V36.032H140.034V40H124.354V17.6ZM156.926 35.424H148.638L146.942 40H142.27L150.59 17.6H155.39L163.71 40H158.654L156.926 35.424ZM150.11 31.456H155.486L152.798 23.68L150.11 31.456ZM166.604 17.6H171.404V36.032H181.644V40H166.604V17.6ZM184.854 17.6H200.534V21.568H189.686V26.56H199.574V30.4H189.686V36.032H200.534V40H184.854V17.6ZM204.697 17.6H213.817C215.225 17.6 216.452 17.7707 217.497 18.112C218.564 18.4533 219.449 18.944 220.153 19.584C220.857 20.2027 221.391 20.96 221.753 21.856C222.116 22.7307 222.297 23.712 222.297 24.8C222.297 26.3573 221.892 27.712 221.081 28.864C220.292 29.9947 219.097 30.8053 217.497 31.296L222.937 40H217.369L212.665 31.808H209.497V40H204.697V17.6ZM212.857 28.032C213.753 28.032 214.489 27.968 215.065 27.84C215.663 27.6907 216.143 27.488 216.505 27.232C216.868 26.9547 217.124 26.6133 217.273 26.208C217.423 25.8027 217.497 25.3333 217.497 24.8C217.497 24.2667 217.423 23.7973 217.273 23.392C217.124 22.9867 216.868 22.656 216.505 22.4C216.143 22.1227 215.663 21.92 215.065 21.792C214.489 21.6427 213.753 21.568 212.857 21.568H209.497V28.032H212.857ZM235.431 35.264H224.871V31.936L235.431 17.6H240.231V31.296H242.791V35.264H240.231V40H235.431V35.264ZM235.431 31.296V22.944L229.351 31.296H235.431ZM254.405 40.384C253.061 40.384 251.845 40.2347 250.757 39.936C249.69 39.616 248.784 39.1787 248.037 38.624C247.312 38.048 246.746 37.3653 246.341 36.576C245.957 35.7653 245.765 34.8693 245.765 33.888C245.765 32.6293 246.149 31.5093 246.917 30.528C247.685 29.5253 248.826 28.8213 250.341 28.416C249.21 28.0533 248.272 27.424 247.525 26.528C246.778 25.632 246.405 24.5653 246.405 23.328C246.405 22.432 246.576 21.6107 246.917 20.864C247.28 20.1173 247.802 19.4773 248.485 18.944C249.168 18.3893 250 17.9627 250.981 17.664C251.984 17.3653 253.125 17.216 254.405 17.216C255.685 17.216 256.816 17.3653 257.797 17.664C258.8 17.9627 259.642 18.3893 260.325 18.944C261.029 19.4773 261.552 20.1173 261.893 20.864C262.256 21.6107 262.437 22.432 262.437 23.328C262.437 24.5653 262.064 25.6213 261.317 26.496C260.57 27.3493 259.621 27.9893 258.469 28.416C261.52 29.3547 263.045 31.1787 263.045 33.888C263.045 34.8693 262.842 35.7653 262.437 36.576C262.053 37.3653 261.488 38.048 260.741 38.624C260.016 39.1787 259.12 39.616 258.053 39.936C256.986 40.2347 255.77 40.384 254.405 40.384ZM254.405 36.352C255.728 36.352 256.698 36.096 257.317 35.584C257.936 35.072 258.245 34.3787 258.245 33.504C258.245 32.544 257.882 31.7867 257.157 31.232C256.453 30.656 255.536 30.2827 254.405 30.112C253.274 30.2827 252.346 30.656 251.621 31.232C250.917 31.7867 250.565 32.544 250.565 33.504C250.565 34.3787 250.885 35.072 251.525 35.584C252.165 36.096 253.125 36.352 254.405 36.352ZM254.405 26.848C255.365 26.6773 256.144 26.3467 256.741 25.856C257.338 25.344 257.637 24.64 257.637 23.744C257.637 22.912 257.349 22.2933 256.773 21.888C256.218 21.4613 255.429 21.248 254.405 21.248C253.402 21.248 252.613 21.4613 252.037 21.888C251.482 22.2933 251.205 22.912 251.205 23.744C251.205 24.64 251.493 25.344 252.069 25.856C252.666 26.3467 253.445 26.6773 254.405 26.848Z" fill="black"/>
</svg>
